<?xml version="1.0"?>
<svg xmlns="http://www.w3.org/2000/svg" height="512px" viewBox="0 0 128 128" width="512px" class=""><g><g><path d="m15.617 30.331h96.766v67.338h-96.766z" fill="#dfeef4" data-original="#DFEEF4" class=""/><g fill="#6d7a84"><path d="m64 86.843a1.75 1.75 0 0 1 -1.75-1.75v-5.339a1.75 1.75 0 0 1 3.5 0v5.339a1.75 1.75 0 0 1 -1.75 1.75z" data-original="#6D7A84" class="active-path" data-old_color="#6D7A84" style="fill:#FC6485"/><path d="m64 73.588a1.75 1.75 0 0 1 -1.75-1.75v-28.931a1.75 1.75 0 0 1 3.5 0v28.931a1.75 1.75 0 0 1 -1.75 1.75z" data-original="#6D7A84" class="active-path" data-old_color="#6D7A84" style="fill:#FC6485"/><path d="m45.73 86.843a1.75 1.75 0 0 1 -1.75-1.75v-5.339a1.75 1.75 0 0 1 3.5 0v5.339a1.75 1.75 0 0 1 -1.75 1.75z" data-original="#6D7A84" class="active-path" data-old_color="#6D7A84" style="fill:#FC6485"/><path d="m45.73 73.588a1.75 1.75 0 0 1 -1.75-1.75v-28.931a1.75 1.75 0 0 1 3.5 0v28.931a1.75 1.75 0 0 1 -1.75 1.75z" data-original="#6D7A84" class="active-path" data-old_color="#6D7A84" style="fill:#FC6485"/><path d="m54.865 86.843a1.75 1.75 0 0 1 -1.75-1.75v-42.186a1.75 1.75 0 0 1 3.5 0v42.186a1.749 1.749 0 0 1 -1.75 1.75z" data-original="#6D7A84" class="active-path" data-old_color="#6D7A84" style="fill:#FC6485"/><path d="m36.6 86.843a1.75 1.75 0 0 1 -1.75-1.75v-42.186a1.75 1.75 0 0 1 3.5 0v42.186a1.749 1.749 0 0 1 -1.75 1.75z" data-original="#6D7A84" class="active-path" data-old_color="#6D7A84" style="fill:#FC6485"/><path d="m27.46 86.843a1.75 1.75 0 0 1 -1.75-1.75v-42.186a1.75 1.75 0 0 1 3.5 0v42.186a1.749 1.749 0 0 1 -1.75 1.75z" data-original="#6D7A84" class="active-path" data-old_color="#6D7A84" style="fill:#FC6485"/><path d="m73.135 86.843a1.749 1.749 0 0 1 -1.75-1.75v-42.186a1.75 1.75 0 0 1 3.5 0v42.186a1.749 1.749 0 0 1 -1.75 1.75z" data-original="#6D7A84" class="active-path" data-old_color="#6D7A84" style="fill:#FC6485"/><path d="m91.4 86.843a1.749 1.749 0 0 1 -1.75-1.75v-42.186a1.75 1.75 0 1 1 3.5 0v42.186a1.749 1.749 0 0 1 -1.75 1.75z" data-original="#6D7A84" class="active-path" data-old_color="#6D7A84" style="fill:#FC6485"/><path d="m82.27 86.843a1.749 1.749 0 0 1 -1.75-1.75v-5.339a1.75 1.75 0 0 1 3.5 0v5.339a1.75 1.75 0 0 1 -1.75 1.75z" data-original="#6D7A84" class="active-path" data-old_color="#6D7A84" style="fill:#FC6485"/><path d="m82.27 73.588a1.749 1.749 0 0 1 -1.75-1.75v-28.931a1.75 1.75 0 0 1 3.5 0v28.931a1.75 1.75 0 0 1 -1.75 1.75z" data-original="#6D7A84" class="active-path" data-old_color="#6D7A84" style="fill:#FC6485"/><path d="m100.54 86.843a1.749 1.749 0 0 1 -1.75-1.75v-42.186a1.75 1.75 0 0 1 3.5 0v42.186a1.749 1.749 0 0 1 -1.75 1.75z" data-original="#6D7A84" class="active-path" data-old_color="#6D7A84" style="fill:#FC6485"/><path d="m121.693 108.729h-10.381a1.75 1.75 0 0 1 0-3.5h8.631v-8.629a1.75 1.75 0 0 1 3.5 0v10.38a1.749 1.749 0 0 1 -1.75 1.749z" data-original="#6D7A84" class="active-path" data-old_color="#6D7A84" style="fill:#FC6485"/><path d="m16.687 108.729h-10.38a1.749 1.749 0 0 1 -1.75-1.75v-10.379a1.75 1.75 0 0 1 3.5 0v8.63h8.63a1.75 1.75 0 0 1 0 3.5z" data-original="#6D7A84" class="active-path" data-old_color="#6D7A84" style="fill:#FC6485"/><path d="m121.693 33.151a1.75 1.75 0 0 1 -1.75-1.75v-8.63h-8.631a1.75 1.75 0 0 1 0-3.5h10.381a1.749 1.749 0 0 1 1.75 1.75v10.379a1.749 1.749 0 0 1 -1.75 1.751z" data-original="#6D7A84" class="active-path" data-old_color="#6D7A84" style="fill:#FC6485"/><path d="m6.307 33.151a1.749 1.749 0 0 1 -1.75-1.75v-10.38a1.749 1.749 0 0 1 1.75-1.75h10.38a1.75 1.75 0 0 1 0 3.5h-8.63v8.629a1.75 1.75 0 0 1 -1.75 1.751z" data-original="#6D7A84" class="active-path" data-old_color="#6D7A84" style="fill:#FC6485"/></g></g></g> </svg>
