<?xml version="1.0"?>
<svg xmlns="http://www.w3.org/2000/svg" height="512px" viewBox="0 0 128 128" width="512px" class=""><g><g><path d="m13.867 30.331v67.338a1.75 1.75 0 0 0 1.75 1.75h96.766a1.749 1.749 0 0 0 1.75-1.75v-67.338a1.749 1.749 0 0 0 -1.75-1.75h-96.766a1.75 1.75 0 0 0 -1.75 1.75zm3.5 1.75h93.266v63.838h-93.266z" data-original="#000000" class="active-path" data-old_color="#000000" fill="#FFFFFF"/><path d="m64 78a1.75 1.75 0 0 0 -1.75 1.75v5.339a1.75 1.75 0 1 0 3.5 0v-5.335a1.75 1.75 0 0 0 -1.75-1.754z" data-original="#000000" class="active-path" data-old_color="#000000" fill="#FFFFFF"/><path d="m64 41.157a1.75 1.75 0 0 0 -1.75 1.75v28.931a1.75 1.75 0 0 0 3.5 0v-28.931a1.75 1.75 0 0 0 -1.75-1.75z" data-original="#000000" class="active-path" data-old_color="#000000" fill="#FFFFFF"/><path d="m45.73 78a1.75 1.75 0 0 0 -1.75 1.75v5.339a1.75 1.75 0 0 0 3.5 0v-5.335a1.75 1.75 0 0 0 -1.75-1.754z" data-original="#000000" class="active-path" data-old_color="#000000" fill="#FFFFFF"/><path d="m45.73 41.157a1.75 1.75 0 0 0 -1.75 1.75v28.931a1.75 1.75 0 0 0 3.5 0v-28.931a1.75 1.75 0 0 0 -1.75-1.75z" data-original="#000000" class="active-path" data-old_color="#000000" fill="#FFFFFF"/><path d="m54.865 41.157a1.75 1.75 0 0 0 -1.75 1.75v42.186a1.75 1.75 0 0 0 3.5 0v-42.186a1.749 1.749 0 0 0 -1.75-1.75z" data-original="#000000" class="active-path" data-old_color="#000000" fill="#FFFFFF"/><path d="m36.6 41.157a1.75 1.75 0 0 0 -1.75 1.75v42.186a1.75 1.75 0 0 0 3.5 0v-42.186a1.749 1.749 0 0 0 -1.75-1.75z" data-original="#000000" class="active-path" data-old_color="#000000" fill="#FFFFFF"/><path d="m27.46 41.157a1.75 1.75 0 0 0 -1.75 1.75v42.186a1.75 1.75 0 0 0 3.5 0v-42.186a1.749 1.749 0 0 0 -1.75-1.75z" data-original="#000000" class="active-path" data-old_color="#000000" fill="#FFFFFF"/><path d="m73.135 41.157a1.749 1.749 0 0 0 -1.75 1.75v42.186a1.75 1.75 0 0 0 3.5 0v-42.186a1.749 1.749 0 0 0 -1.75-1.75z" data-original="#000000" class="active-path" data-old_color="#000000" fill="#FFFFFF"/><path d="m91.4 41.157a1.749 1.749 0 0 0 -1.75 1.75v42.186a1.75 1.75 0 1 0 3.5 0v-42.186a1.749 1.749 0 0 0 -1.75-1.75z" data-original="#000000" class="active-path" data-old_color="#000000" fill="#FFFFFF"/><path d="m82.27 78a1.749 1.749 0 0 0 -1.75 1.75v5.339a1.75 1.75 0 0 0 3.5 0v-5.335a1.75 1.75 0 0 0 -1.75-1.754z" data-original="#000000" class="active-path" data-old_color="#000000" fill="#FFFFFF"/><path d="m82.27 41.157a1.749 1.749 0 0 0 -1.75 1.75v28.931a1.75 1.75 0 0 0 3.5 0v-28.931a1.75 1.75 0 0 0 -1.75-1.75z" data-original="#000000" class="active-path" data-old_color="#000000" fill="#FFFFFF"/><path d="m100.54 41.157a1.749 1.749 0 0 0 -1.75 1.75v42.186a1.75 1.75 0 0 0 3.5 0v-42.186a1.749 1.749 0 0 0 -1.75-1.75z" data-original="#000000" class="active-path" data-old_color="#000000" fill="#FFFFFF"/><path d="m121.693 94.849a1.75 1.75 0 0 0 -1.75 1.75v8.63h-8.631a1.75 1.75 0 0 0 0 3.5h10.381a1.749 1.749 0 0 0 1.75-1.75v-10.379a1.749 1.749 0 0 0 -1.75-1.751z" data-original="#000000" class="active-path" data-old_color="#000000" fill="#FFFFFF"/><path d="m16.687 105.229h-8.63v-8.629a1.75 1.75 0 0 0 -3.5 0v10.38a1.749 1.749 0 0 0 1.75 1.75h10.38a1.75 1.75 0 0 0 0-3.5z" data-original="#000000" class="active-path" data-old_color="#000000" fill="#FFFFFF"/><path d="m121.693 19.271h-10.381a1.75 1.75 0 0 0 0 3.5h8.631v8.629a1.75 1.75 0 1 0 3.5 0v-10.379a1.749 1.749 0 0 0 -1.75-1.75z" data-original="#000000" class="active-path" data-old_color="#000000" fill="#FFFFFF"/><path d="m6.307 33.151a1.75 1.75 0 0 0 1.75-1.75v-8.63h8.63a1.75 1.75 0 0 0 0-3.5h-10.38a1.749 1.749 0 0 0 -1.75 1.75v10.379a1.749 1.749 0 0 0 1.75 1.751z" data-original="#000000" class="active-path" data-old_color="#000000" fill="#FFFFFF"/></g></g> </svg>
